<?xml version="1.0" encoding="utf-8"?>
<!-- Generator: Adobe Illustrator 21.0.0, SVG Export Plug-In . SVG Version: 6.00 Build 0)  -->
<svg version="1.1" id="Layer_1" xmlns="http://www.w3.org/2000/svg" xmlns:xlink="http://www.w3.org/1999/xlink" x="0px" y="0px"
	 viewBox="0 0 19 13.6" style="enable-background:new 0 0 19 13.6;" xml:space="preserve">
<title>Asset 1</title>
<g id="Layer_2">
	<g id="WHITE">
		<path d="M8.4,1.3c0.1,0.4,0,0.8-0.4,1c-2.2,1-3.5,2.2-3.5,4.1s1.6,3,3.4,3.3c0.3,0,0.7,0.5,0.7,1.2c0,1.4-1.4,2.1-2.4,2.1l0,0
			C3.3,12.8,1,10.5,1,7.5C1,4,4.2,1.7,7.4,0.7C7.9,0.6,8.3,0.8,8.4,1.3L8.4,1.3z M17.9,1.3c0.1,0.4,0,0.8-0.4,1
			c-2.2,1-3.5,2.2-3.5,4.1s1.6,3,3.4,3.3c0.3,0,0.7,0.5,0.7,1.2c-0.1,1.2-1.1,2.1-2.4,2.1h-0.1c-2.9-0.1-5.2-2.5-5.1-5.4
			c0-3.6,3.1-5.8,6.4-6.8C17.3,0.6,17.7,0.9,17.9,1.3L17.9,1.3z"/>
	</g>
</g>
</svg>
